<?xml version="1.0" encoding="UTF-8"?>
<svg xmlns="http://www.w3.org/2000/svg" width="64" height="64" viewBox="-64 -64 128 128">
  <g transform="translate(64,64)">
    <!-- 24 rounded bars rotated around the center -->
    <g>
      <!-- Repeat 24 times, each 15 degrees apart -->
      <!-- Bar at 0° -->
      <rect x="-4" y="-56" width="8" height="5" rx="4" ry="4" fill="#00c853" fill-opacity="1"
        transform="rotate(0)" />
      <rect x="-4" y="-56" width="8" height="5" rx="4" ry="4" fill="#00c853" fill-opacity="0.95"
        transform="rotate(15)" />
      <rect x="-4" y="-56" width="8" height="5" rx="4" ry="4" fill="#00c853" fill-opacity="0.9"
        transform="rotate(30)" />
      <rect x="-4" y="-56" width="8" height="5" rx="4" ry="4" fill="#00c853" fill-opacity="0.85"
        transform="rotate(45)" />
      <rect x="-4" y="-56" width="8" height="5" rx="4" ry="4" fill="#00c853" fill-opacity="0.8"
        transform="rotate(60)" />
      <rect x="-4" y="-56" width="8" height="5" rx="4" ry="4" fill="#00c853" fill-opacity="0.75"
        transform="rotate(75)" />
      <rect x="-4" y="-56" width="8" height="5" rx="4" ry="4" fill="#00c853" fill-opacity="0.7"
        transform="rotate(90)" />
      <rect x="-4" y="-56" width="8" height="5" rx="4" ry="4" fill="#00c853" fill-opacity="0.65"
        transform="rotate(105)" />
      <rect x="-4" y="-56" width="8" height="5" rx="4" ry="4" fill="#00c853" fill-opacity="0.6"
        transform="rotate(120)" />
      <rect x="-4" y="-56" width="8" height="5" rx="4" ry="4" fill="#00c853" fill-opacity="0.55"
        transform="rotate(135)" />
      <rect x="-4" y="-56" width="8" height="5" rx="4" ry="4" fill="#00c853" fill-opacity="0.5"
        transform="rotate(150)" />
      <rect x="-4" y="-56" width="8" height="5" rx="4" ry="4" fill="#00c853" fill-opacity="0.45"
        transform="rotate(165)" />
      <rect x="-4" y="-56" width="8" height="5" rx="4" ry="4" fill="#00c853" fill-opacity="0.4"
        transform="rotate(180)" />
      <rect x="-4" y="-56" width="8" height="5" rx="4" ry="4" fill="#00c853" fill-opacity="0.35"
        transform="rotate(195)" />
      <rect x="-4" y="-56" width="8" height="5" rx="4" ry="4" fill="#00c853" fill-opacity="0.3"
        transform="rotate(210)" />
      <rect x="-4" y="-56" width="8" height="5" rx="4" ry="4" fill="#00c853" fill-opacity="0.25"
        transform="rotate(225)" />
      <rect x="-4" y="-56" width="8" height="5" rx="4" ry="4" fill="#00c853" fill-opacity="0.2"
        transform="rotate(240)" />
      <rect x="-4" y="-56" width="8" height="5" rx="4" ry="4" fill="#00c853" fill-opacity="0.15"
        transform="rotate(255)" />
      <rect x="-4" y="-56" width="8" height="5" rx="4" ry="4" fill="#00c853" fill-opacity="0.1"
        transform="rotate(270)" />
      <rect x="-4" y="-56" width="8" height="5" rx="4" ry="4" fill="#00c853" fill-opacity="0.08"
        transform="rotate(285)" />
      <rect x="-4" y="-56" width="8" height="5" rx="4" ry="4" fill="#00c853" fill-opacity="0.06"
        transform="rotate(300)" />
      <rect x="-4" y="-56" width="8" height="5" rx="4" ry="4" fill="#00c853" fill-opacity="0.04"
        transform="rotate(315)" />
      <rect x="-4" y="-56" width="8" height="5" rx="4" ry="4" fill="#00c853" fill-opacity="0.02"
        transform="rotate(330)" />
      <rect x="-4" y="-56" width="8" height="5" rx="4" ry="4" fill="#00c853" fill-opacity="0.01"
        transform="rotate(345)" />
    </g>

    <!-- Animate the whole group rotation -->
    <animateTransform attributeName="transform"
      type="rotate"
      values="0;15;30;45;60;75;90;105;120;135;150;165;180;195;210;225;240;255;270;285;300;315;330;345"
      dur="1080ms"
      calcMode="discrete"
      repeatCount="indefinite" />
  </g>
</svg>